<?xml version="1.0" encoding="iso-8859-1"?>
<!-- Uploaded to: SVG Repo, www.svgrepo.com, Generator: SVG Repo Mixer Tools -->
<svg fill="#FFFFFF" height="50px" width="50px" version="1.1" id="Layer_1" xmlns="http://www.w3.org/2000/svg" xmlns:xlink="http://www.w3.org/1999/xlink" 
	 viewBox="0 0 512 512" xml:space="preserve">
<g>
	<g>
		<g>
			<path d="M480.888,347.652h-34.753c2.097-8.648,3.179-17.508,3.179-26.467c0-61.997-50.439-112.436-112.435-112.436
				c-42.686,0-81.318,23.993-100.37,61.721c-9.841-2.753-19.989-4.145-30.259-4.145c-25.669,0-50.77,8.882-70.682,25.009
				c-17.914,14.51-30.991,34.328-37.332,56.318H31.107C13.954,347.652,0,361.607,0,378.761c0,17.154,13.954,31.109,31.108,31.109
				h7.889l18.628,50.405c1.173,3.171,4.195,5.276,7.575,5.276h46.756c4.461,0,8.076-3.615,8.076-8.076
				c0-4.461-3.615-8.076-8.076-8.076H70.824l-14.608-39.531h399.569L441.176,449.4H139.992c-4.461,0-8.076,3.615-8.076,8.076
				c0,4.461,3.615,8.076,8.076,8.076h306.81c3.381,0,6.403-2.105,7.575-5.276l18.629-50.405h7.882
				c17.156,0,31.112-13.955,31.112-31.109C512,361.607,498.043,347.652,480.888,347.652z M206.249,282.477
				c10.901,0,21.638,1.83,31.914,5.44c4.016,1.411,8.437-0.538,10.106-4.453c15.166-35.577,49.948-58.564,88.61-58.564
				c53.091,0,96.283,43.193,96.283,96.284c0,8.99-1.245,17.869-3.705,26.467h-49.87c3.642-6.765,5.61-14.395,5.61-22.316
				c0-25.991-21.147-47.135-47.141-47.135c-25.992,0-47.137,21.145-47.137,47.135c0,7.921,1.967,15.55,5.609,22.316H115.142
				C128.282,309.345,165.087,282.477,206.249,282.477z M369.043,325.336c0,8.492-3.432,16.484-9.499,22.316h-42.98
				c-6.065-5.831-9.495-13.824-9.495-22.316c0-17.084,13.899-30.983,30.985-30.983C355.141,294.353,369.043,308.253,369.043,325.336
				z M480.888,393.718H467.38H44.621H31.107c-8.246,0-14.956-6.709-14.956-14.957s6.709-14.958,14.956-14.958h73.365h209.053h49.06
				h72.772h45.531c8.248,0,14.96,6.71,14.96,14.958S489.136,393.718,480.888,393.718z"/>
			<path d="M316.208,325.336c0,12.047,9.803,21.849,21.854,21.849c12.045,0,21.844-9.802,21.844-21.85
				c0-12.046-9.799-21.848-21.844-21.848C326.013,303.488,316.208,313.29,316.208,325.336z M338.062,319.64
				c3.139,0,5.692,2.555,5.692,5.696c0,3.141-2.553,5.697-5.692,5.697c-3.144,0-5.702-2.556-5.702-5.697
				S334.918,319.64,338.062,319.64z"/>
			<path d="M336.977,263.211c12.216,0,24.002,3.599,34.081,10.407c3.696,2.495,8.717,1.526,11.213-2.172
				c2.496-3.697,1.525-8.717-2.172-11.213c-12.76-8.62-27.672-13.175-43.123-13.175c-36.476,0-68.251,25.899-75.553,61.582
				c-0.894,4.371,1.923,8.638,6.293,9.532c0.547,0.112,1.091,0.166,1.628,0.166c3.756-0.001,7.121-2.636,7.904-6.459
				C283.019,283.679,308.139,263.211,336.977,263.211z"/>
			<path d="M220.605,301.861c-4.808-0.926-9.746-1.397-14.676-1.397c-21.156,0-41.615,8.833-56.133,24.235
				c-3.059,3.247-2.907,8.358,0.337,11.417c1.56,1.47,3.551,2.199,5.539,2.199c2.146,0,4.289-0.851,5.878-2.536
				c11.646-12.357,27.407-19.162,44.379-19.162c3.907,0,7.817,0.371,11.62,1.104c4.382,0.844,8.613-2.022,9.458-6.402
				C227.852,306.939,224.984,302.704,220.605,301.861z"/>
			<path d="M169.992,213.161c-2.891,9.411-9.073,15.524-9.104,15.554c-3.225,3.081-3.342,8.192-0.262,11.42
				c1.587,1.66,3.712,2.497,5.842,2.497c2.004,0,4.013-0.742,5.578-2.235c0.36-0.345,8.879-8.586,13.138-21.704
				c3.993-12.3,5.052-31.293-12.578-51.922c-23.206-27.153-3.272-45.922-0.884-48.003c3.374-2.89,3.781-7.964,0.906-11.356
				c-2.886-3.402-7.979-3.822-11.383-0.937c-0.581,0.493-14.26,12.296-15.792,31.364c-1.073,13.356,3.932,26.622,14.876,39.426
				C170.427,189.082,173.677,201.16,169.992,213.161z"/>
			<path d="M239.442,200.969c-2.891,9.411-9.073,15.524-9.104,15.555c-3.225,3.081-3.341,8.192-0.262,11.418
				c1.587,1.66,3.712,2.497,5.842,2.497c2.004,0,4.013-0.742,5.578-2.235c0.36-0.345,8.879-8.586,13.138-21.704
				c3.993-12.301,5.052-31.293-12.578-51.923c-23.206-27.152-3.272-45.921-0.884-48.002c3.374-2.89,3.781-7.965,0.906-11.356
				c-2.886-3.402-7.979-3.822-11.383-0.937c-0.581,0.493-14.26,12.296-15.792,31.364c-1.073,13.356,3.932,26.621,14.877,39.425
				C239.877,176.889,243.128,188.966,239.442,200.969z"/>
			<path d="M307.818,155.051c-2.891,9.411-9.073,15.524-9.104,15.554c-3.225,3.081-3.341,8.192-0.262,11.42
				c1.587,1.66,3.712,2.497,5.842,2.497c2.004,0,4.013-0.742,5.578-2.235c0.36-0.345,8.879-8.586,13.138-21.704
				c3.993-12.3,5.052-31.294-12.578-51.922c-23.206-27.153-3.272-45.92-0.884-48.003c3.374-2.89,3.781-7.964,0.906-11.356
				c-2.886-3.402-7.979-3.822-11.383-0.937c-0.581,0.493-14.26,12.296-15.792,31.364c-1.073,13.356,3.932,26.622,14.876,39.426
				C308.253,130.972,311.504,143.05,307.818,155.051z"/>
			<path d="M378.345,169.958c-2.891,9.411-9.073,15.524-9.104,15.555c-3.225,3.081-3.341,8.192-0.262,11.42
				c1.587,1.66,3.712,2.497,5.842,2.497c2.004,0,4.013-0.742,5.578-2.235c0.36-0.345,8.879-8.586,13.138-21.704
				c3.993-12.301,5.052-31.294-12.578-51.923c-23.206-27.152-3.272-45.921-0.884-48.002c3.374-2.89,3.781-7.964,0.906-11.356
				c-2.886-3.402-7.979-3.822-11.383-0.937c-0.581,0.493-14.26,12.296-15.792,31.364c-1.073,13.356,3.932,26.621,14.876,39.425
				C378.78,145.878,382.031,157.956,378.345,169.958z"/>
		</g>
	</g>
</g>
</svg>